<svg width="32" height="32" viewBox="0 0 32 32" fill="none" xmlns="http://www.w3.org/2000/svg">
  <!-- Gradient and filter definitions -->
  <defs>
    <linearGradient id="bgGradient" x1="0%" y1="0%" x2="100%" y2="100%">
      <stop offset="0%" stop-color="#2563EB" />
      <stop offset="100%" stop-color="#7C3AED" />
    </linearGradient>
    <linearGradient id="glowGradient" x1="0%" y1="0%" x2="100%" y2="100%">
      <stop offset="0%" stop-color="#EC4899" />
      <stop offset="100%" stop-color="#8B5CF6" />
    </linearGradient>
    <linearGradient id="shineGradient" x1="0%" y1="0%" x2="100%" y2="100%">
      <stop offset="0%" stop-color="white" stop-opacity="0.7" />
      <stop offset="100%" stop-color="white" stop-opacity="0" />
    </linearGradient>
    <filter id="glow" x="-20%" y="-20%" width="140%" height="140%">
      <feGaussianBlur stdDeviation="0.5" result="blur" />
      <feComposite in="SourceGraphic" in2="blur" operator="over" />
    </filter>
    <filter id="shadow" x="-20%" y="-20%" width="140%" height="140%">
      <feDropShadow dx="0" dy="1" stdDeviation="1" flood-opacity="0.3" />
    </filter>
  </defs>
  
  <!-- 3D Cube Base -->
  <g filter="url(#shadow)">
    <!-- Bottom face -->
    <path d="M10 22 L22 22 L22 10 L10 10 Z" fill="url(#bgGradient)" />
    
    <!-- Left face (3D effect) -->
    <path d="M6 18 L10 22 L10 10 L6 6 Z" fill="#4338CA" />
    
    <!-- Top face (3D effect) -->
    <path d="M6 6 L18 6 L22 10 L10 10 Z" fill="#6D28D9" />
    
    <!-- Cube edges -->
    <path d="M10 10 L10 22 L22 22 L22 10 Z" stroke="white" stroke-width="0.5" stroke-opacity="0.5" fill="none" />
    <path d="M6 6 L18 6 L22 10" stroke="white" stroke-width="0.5" stroke-opacity="0.5" fill="none" />
    <path d="M6 6 L6 18 L10 22" stroke="white" stroke-width="0.5" stroke-opacity="0.5" fill="none" />
  </g>
  
  <!-- Web symbol (glowing globe) -->
  <circle cx="13" cy="14" r="3" fill="url(#glowGradient)" filter="url(#glow)" />
  <circle cx="13" cy="14" r="3" stroke="white" stroke-width="0.5" stroke-opacity="0.7" fill="none" />
  <path d="M13 11 L13 17" stroke="white" stroke-width="0.5" />
  <path d="M10 14 L16 14" stroke="white" stroke-width="0.5" />
  <path d="M11 12 L15 16" stroke="white" stroke-width="0.5" />
  <path d="M11 16 L15 12" stroke="white" stroke-width="0.5" />
  
  <!-- Code symbol -->
  <path d="M18 12 L20 14 L18 16" stroke="white" stroke-width="0.7" stroke-linecap="round" stroke-linejoin="round" />
  <path d="M15 12 L13 14 L15 16" stroke="white" stroke-width="0.7" stroke-linecap="round" stroke-linejoin="round" />
  
  <!-- Shine effect -->
  <path d="M10 10 L16 10 L13 13 Z" fill="url(#shineGradient)" opacity="0.3" />
  
  <!-- Floating elements for modern tech feel -->
  <circle cx="24" cy="8" r="1.5" fill="#EC4899" opacity="0.8" />
  <circle cx="7" cy="24" r="1" fill="#8B5CF6" opacity="0.8" />
  <circle cx="22" cy="25" r="1.5" fill="#2563EB" opacity="0.6" />
  
  <!-- Connection lines -->
  <path d="M22 25 L18 18" stroke="white" stroke-width="0.3" stroke-opacity="0.4" stroke-dasharray="1 1" />
  <path d="M7 24 L10 18" stroke="white" stroke-width="0.3" stroke-opacity="0.4" stroke-dasharray="1 1" />
  <path d="M24 8 L18 10" stroke="white" stroke-width="0.3" stroke-opacity="0.4" stroke-dasharray="1 1" />
</svg> 