<svg width="100" height="100" viewBox="0 0 100 100" fill="none" xmlns="http://www.w3.org/2000/svg">
  <!-- Gradient and filter definitions -->
  <defs>
    <linearGradient id="bgGradient" x1="0%" y1="0%" x2="100%" y2="100%">
      <stop offset="0%" stop-color="#2563EB" />
      <stop offset="100%" stop-color="#7C3AED" />
    </linearGradient>
    <linearGradient id="glowGradient" x1="0%" y1="0%" x2="100%" y2="100%">
      <stop offset="0%" stop-color="#EC4899" />
      <stop offset="100%" stop-color="#8B5CF6" />
    </linearGradient>
    <linearGradient id="shineGradient" x1="0%" y1="0%" x2="100%" y2="100%">
      <stop offset="0%" stop-color="white" stop-opacity="0.7" />
      <stop offset="100%" stop-color="white" stop-opacity="0" />
    </linearGradient>
    <filter id="glow" x="-20%" y="-20%" width="140%" height="140%">
      <feGaussianBlur stdDeviation="2" result="blur" />
      <feComposite in="SourceGraphic" in2="blur" operator="over" />
    </filter>
    <filter id="shadow" x="-20%" y="-20%" width="140%" height="140%">
      <feDropShadow dx="0" dy="3" stdDeviation="4" flood-opacity="0.3" />
    </filter>
  </defs>
  
  <!-- 3D Cube Base -->
  <g filter="url(#shadow)">
    <!-- Bottom face -->
    <path d="M30 65 L70 65 L70 35 L30 35 Z" fill="url(#bgGradient)" />
    
    <!-- Left face (3D effect) -->
    <path d="M20 55 L30 65 L30 35 L20 25 Z" fill="#4338CA" />
    
    <!-- Top face (3D effect) -->
    <path d="M20 25 L60 25 L70 35 L30 35 Z" fill="#6D28D9" />
    
    <!-- Cube edges -->
    <path d="M30 35 L30 65 L70 65 L70 35 Z" stroke="white" stroke-width="1.5" stroke-opacity="0.5" fill="none" />
    <path d="M20 25 L60 25 L70 35" stroke="white" stroke-width="1.5" stroke-opacity="0.5" fill="none" />
    <path d="M20 25 L20 55 L30 65" stroke="white" stroke-width="1.5" stroke-opacity="0.5" fill="none" />
  </g>
  
  <!-- Web symbol (glowing globe) -->
  <circle cx="38" cy="45" r="10" fill="url(#glowGradient)" filter="url(#glow)" />
  <circle cx="38" cy="45" r="10" stroke="white" stroke-width="1.5" stroke-opacity="0.7" fill="none" />
  <path d="M38 35 L38 55" stroke="white" stroke-width="1.5" />
  <path d="M28 45 L48 45" stroke="white" stroke-width="1.5" />
  <path d="M31 38 L45 52" stroke="white" stroke-width="1.5" />
  <path d="M31 52 L45 38" stroke="white" stroke-width="1.5" />
  
  <!-- Code symbol -->
  <path d="M55 40 L62 45 L55 50" stroke="white" stroke-width="2" stroke-linecap="round" stroke-linejoin="round" />
  <path d="M45 40 L38 45 L45 50" stroke="white" stroke-width="2" stroke-linecap="round" stroke-linejoin="round" />
  
  <!-- Shine effect -->
  <path d="M30 35 L50 35 L40 45 Z" fill="url(#shineGradient)" opacity="0.3" />
  
  <!-- Floating elements for modern tech feel -->
  <circle cx="75" cy="30" r="4" fill="#EC4899" opacity="0.8" />
  <circle cx="20" cy="70" r="3" fill="#8B5CF6" opacity="0.8" />
  <circle cx="65" cy="75" r="5" fill="#2563EB" opacity="0.6" />
  
  <!-- Connection lines -->
  <path d="M65 75 L55 55" stroke="white" stroke-width="0.8" stroke-opacity="0.4" stroke-dasharray="2 2" />
  <path d="M20 70 L30 55" stroke="white" stroke-width="0.8" stroke-opacity="0.4" stroke-dasharray="2 2" />
  <path d="M75 30 L60 35" stroke="white" stroke-width="0.8" stroke-opacity="0.4" stroke-dasharray="2 2" />
</svg> 